<?xml version="1.0" encoding="UTF-8"?>
<svg id="Layer_2" xmlns="http://www.w3.org/2000/svg" viewBox="0 0 199.12 171.09">
  <defs>
    <style>
      .cls-1 {
        fill: #fff;
      }
    </style>
  </defs>
  <g id="Layer_1-2" data-name="Layer_1">
    <path class="cls-1" d="M153.41,149.63c.48,2.91.69,5.86.67,8.81-.01,1.52-.09,3.04-.23,4.55-.06.66-.13,1.33-.22,1.99-.05.38-.1.76-.17,1.13-.02.11-.04.22-.07.32-.05.17-.03.15.05-.07l.37-.36c.15-.06.07-.04-.23.04.21.06-.61,0-.58,0-.75.01-1.49,0-2.24,0-1.54,0-3.08,0-4.62,0-3.08,0-6.15,0-9.23.01s-3.22,5,0,5c3.59,0,7.18,0,10.77-.01,1.67,0,3.33,0,5,0,1.85-.01,3.84-.29,4.94-1.98.88-1.35.91-3.22,1.09-4.77.2-1.7.32-3.41.36-5.12.08-3.65-.24-7.29-.83-10.9-.22-1.33-1.87-2.08-3.08-1.75-1.42.39-1.97,1.74-1.75,3.08h0Z"/>
    <path class="cls-1" d="M199.1,103.19c-.39-9.87.02-19.78,0-29.65,0-2.15,0-4.3-.09-6.45-.11-2.71-4.28-3.53-4.91-.66-.35,1.58-.74,3.16-1.17,4.72-.24.89-.5,1.78-.79,2.65-.15.45-.3.9-.47,1.35-.06.16-.12.33-.19.49.17-.41-.08.18-.13.26-.08.16-.61,1.07-.16.41-.61.92-.9,1.36-.73,2.53.01.1.03.21.05.31.1.72.21,1.43.32,2.15.86,5.83,1.73,11.66,2.59,17.49.25,1.69.5,3.38.75,5.08.2,1.34,1.89,2.07,3.08,1.75,1.43-.39,1.94-1.73,1.75-3.08-1.08-7.3-2.17-14.61-3.25-21.91l-.46-3.11-.64,2.43c1.48-1.65,2.11-4.04,2.73-6.11s1.1-4.02,1.55-6.06l-4.91-.66c.39,9.87-.02,19.78,0,29.65,0,2.15,0,4.3.09,6.45.13,3.21,5.13,3.22,5,0h0Z"/>
    <path class="cls-1" d="M118.54,93.52c-3.26,6.84-4.26,14.82-1.46,22.01s8.83,12.66,16.08,15.64c2.72,1.12,5.56,1.88,8.46,2.33,1.33.21,2.69-.34,3.08-1.75.33-1.19-.4-2.87-1.75-3.08-5.15-.8-10.32-2.57-14.45-5.83-4.97-3.92-8-9.79-8.07-16.13-.05-3.7.84-7.35,2.43-10.68.58-1.22.34-2.7-.9-3.42-1.09-.64-2.84-.33-3.42.9h0Z"/>
    <g>
      <path class="cls-1" d="M39.51,19.02c-2.14-1.44-2.77-5.32-.92-7.57,1.82-2.2,5.33-1.99,6.82.4,1.31,2.09.65,5.17-1.13,6.69-1.3,1.12-3.28,1.48-4.78.47Z"/>
      <path class="cls-1" d="M40.77,16.86c-.07-.05-.14-.1-.21-.16l.51.39c-.26-.21-.48-.44-.69-.7l.39.51c-.26-.35-.48-.73-.65-1.13l.25.6c-.2-.48-.33-.98-.4-1.5l.09.66c-.07-.53-.07-1.05,0-1.58l-.09.66c.07-.49.19-.96.38-1.42l-.25.6c.16-.36.36-.7.6-1.01l-.39.51c.23-.28.48-.53.77-.75l-.51.39c.28-.21.58-.38.9-.52l-.6.25c.34-.14.7-.24,1.06-.29l-.66.09c.4-.05.79-.05,1.19,0l-.66-.09c.39.06.77.16,1.14.32l-.6-.25c.31.14.6.31.87.51l-.51-.39c.28.22.52.46.74.74l-.39-.51c.23.3.41.62.55.97l-.25-.6c.15.39.26.78.31,1.2l-.09-.66c.06.49.05.97-.01,1.46l.09-.66c-.08.52-.21,1.02-.42,1.51l.25-.6c-.19.44-.43.85-.73,1.24l.39-.51c-.24.29-.5.56-.79.79l.51-.39c-.3.23-.62.42-.96.57l.6-.25c-.38.16-.77.27-1.18.32l.66-.09c-.33.04-.66.04-.99,0l.66.09c-.3-.05-.58-.12-.86-.23l.6.25c-.21-.09-.41-.2-.61-.32-1.1-.71-2.81-.26-3.42.9-.66,1.24-.28,2.66.9,3.42,1.44.94,3.28,1.14,4.93.71s2.92-1.45,3.91-2.77c.87-1.16,1.28-2.55,1.45-3.97s-.13-2.86-.75-4.15c-.56-1.17-1.62-2.23-2.79-2.8-1.42-.69-2.87-.89-4.42-.64-2.68.42-4.86,2.73-5.39,5.35-.63,3.11.38,6.43,3.05,8.27.51.35,1.35.41,1.93.25s1.21-.61,1.49-1.15c.67-1.27.25-2.63-.9-3.42Z"/>
    </g>
    <path class="cls-1" d="M96.39,88.07c.27-.37.54-.73.82-1.09-.59.79.15-.19.33-.41.3-.38.61-.75.92-1.13,1.67-1.99,3.45-3.9,5.31-5.71,5.38-5.26,11.15-9.54,17.97-12.95,8.31-4.16,17.55-6.22,26.86-5.74,1.66.08,3.32.24,4.97.45-.75-.09.22.03.42.06.32.05.64.1.96.15.76.12,1.52.26,2.27.41,1.63.32,3.25.71,4.85,1.16,7.62,2.14,14.86,5.77,20.58,11.52,7.44,7.48,11.42,18.04,11.47,28.53.02,4.98-.99,10.53-2.89,14.75-1.52,3.39-3.56,6.6-5.81,9.25-5.37,6.31-12.16,10.9-19.63,14.48-16.62,7.95-36.09,10.38-54.32,8.33-7.69-.86-15.25-2.74-22.5-5.43-3.39-1.25-6.26-2.52-9.63-4.29-3.99-2.1-7.85-4.53-11.4-7.33-8.76-6.93-15.75-15.94-20.12-26.23-3.97-9.34-5.65-19.53-5.6-29.64.08-14.41,3.76-28.21,8.58-41.79,2.88-8.11,6.49-16.41,12.78-22.5,6.78-6.55,16.52-9.06,25.74-7.47,4.61.8,9.22,2.53,12.81,5.59,2.87,2.44,4.84,5.38,6.03,8.7,1.5,4.2,2.15,8.68,2.72,13.08.79,6.13,1.49,12.27,1.66,18.45.13,4.73,0,9.47-.39,14.19-.11,1.35,1.23,2.5,2.5,2.5,1.44,0,2.39-1.15,2.5-2.5.96-11.68.02-23.24-1.56-34.83-1.2-8.8-3.2-17.73-10.47-23.57C96.71.3,84.9-1.47,74.59,1.17s-17.25,9.61-22.19,18.26c-4.08,7.14-6.69,15.05-9.21,22.84-2.15,6.65-3.83,13.45-4.83,20.38-1.44,9.94-1.6,20,.11,29.91,1.98,11.45,6.65,22.4,13.74,31.63,11.02,14.35,27.12,23.57,44.42,28.19,19.22,5.13,40.34,4.48,59.31-1.44,16.47-5.14,33.3-15.1,40.17-31.71,4.44-10.75,3.76-23.37-.68-34-3.97-9.5-11.05-17.15-20.1-22.03-12.56-6.77-28.12-8.98-42.05-5.85-15.12,3.39-28.7,12.95-38.53,24.76-.93,1.11-1.83,2.25-2.67,3.43-.79,1.1-.19,2.78.9,3.42,1.26.74,2.63.2,3.42-.9h0Z"/>
    <g>
      <path class="cls-1" d="M67.62,38.58c-2.14-1.44-2.77-5.32-.92-7.57,1.82-2.2,5.33-1.99,6.82.4,1.31,2.09.65,5.17-1.13,6.69-1.3,1.12-3.28,1.48-4.78.47Z"/>
      <path class="cls-1" d="M68.88,36.42c-.07-.05-.14-.1-.21-.16l.51.39c-.26-.21-.48-.44-.69-.7l.39.51c-.26-.35-.48-.73-.65-1.13l.25.6c-.2-.48-.33-.98-.4-1.5l.09.66c-.07-.53-.07-1.05,0-1.58l-.09.66c.07-.49.19-.96.38-1.42l-.25.6c.16-.36.36-.7.6-1.01l-.39.51c.23-.28.48-.53.77-.75l-.51.39c.28-.21.58-.38.9-.52l-.6.25c.34-.14.7-.24,1.06-.29l-.66.09c.4-.05.79-.05,1.19,0l-.66-.09c.39.06.77.16,1.14.32l-.6-.25c.31.14.6.31.87.51l-.51-.39c.28.22.52.46.74.74l-.39-.51c.23.3.41.62.55.97l-.25-.6c.15.39.26.78.31,1.2l-.09-.66c.06.49.05.97-.01,1.46l.09-.66c-.08.52-.21,1.02-.42,1.51l.25-.6c-.19.44-.43.85-.73,1.24l.39-.51c-.24.29-.5.56-.79.79l.51-.39c-.3.23-.62.42-.96.57l.6-.25c-.38.16-.77.27-1.18.32l.66-.09c-.33.04-.66.04-.99,0l.66.09c-.3-.05-.58-.12-.86-.23l.6.25c-.21-.09-.41-.2-.61-.32-1.1-.71-2.81-.26-3.42.9-.66,1.24-.28,2.66.9,3.42,1.44.94,3.28,1.14,4.93.71s2.92-1.45,3.91-2.77c.87-1.16,1.28-2.55,1.45-3.97s-.13-2.86-.75-4.15c-.56-1.17-1.62-2.23-2.79-2.8-1.42-.69-2.87-.89-4.42-.64-2.68.42-4.86,2.73-5.39,5.35-.63,3.11.38,6.43,3.05,8.27.51.35,1.35.41,1.93.25s1.21-.61,1.49-1.15c.67-1.27.25-2.63-.9-3.42Z"/>
    </g>
    <path class="cls-1" d="M39.25,55.35c-6.84,1.32-14.12.3-20.68-1.87-2.92-.97-5.75-2.22-8.34-3.89-1.21-.78-1.92-1.3-2.94-2.3-.95-.93-1.16-1.14-1.75-2.27-.09-.18-.28-.7-.12-.22-.07-.21-.14-.42-.2-.64-.21-.79-.25-1.6-.23-2.41.05-1.7.53-3.42,1.31-4.93.35-.67.75-1.34,1.22-1.92.26-.31.54-.61.84-.89.08-.08.17-.15.25-.23.33-.32-.28.18-.02,0,.36-.25.72-.47,1.11-.67.17-.09.67-.29.21-.11.26-.1.51-.19.78-.28.49-.16.98-.28,1.48-.39.26-.06.53-.1.8-.15.06-.01.55-.08.26-.04s.41-.04.4-.04c1.27-.12,2.55-.14,3.82-.08,2.9.13,5.54.61,8.44,1.41,6.85,1.88,13.47,5.27,18.45,10.41,2.24,2.31,5.78-1.22,3.54-3.54-5.19-5.36-12.02-9.04-19.1-11.24-5.87-1.83-12.74-2.99-18.8-1.35C2.74,29.68-1.13,37.95.29,45.04c1.24,6.2,8.42,9.87,13.68,12.05,8.27,3.43,17.77,4.79,26.61,3.08,1.33-.26,2.08-1.85,1.75-3.08-.38-1.39-1.75-2-3.08-1.75h0Z"/>
  </g>
</svg>