<?xml version="1.0" encoding="UTF-8"?>
<svg id="Layer_2" xmlns="http://www.w3.org/2000/svg" viewBox="0 0 100.02 100.02">
  <defs>
    <style>
      .cls-1 {
        fill: #2cb67d;
      }

      .cls-2 {
        fill: #16161a;
      }
    </style>
  </defs>
  <g id="Layer_1-2" data-name="Layer_1">
    <g>
      <path class="cls-2" d="M29.09,100.02c-3.16-.01-6.25,0-9.3,0,2.34,0,4.71-.01,7.12-.01.72,0,1.45,0,2.18.01Z"/>
      <path class="cls-1" d="M100.02,79.92c-.01-15.53,0-34.79,0-50.82-.02-6.33.05-12.36-.07-18.36-.13-6.3-.62-10.3-7.82-10.52-3.37-.18-6.68-.22-10.03-.22-2.87,0-5.77.03-8.74.03-.97,0-1.94,0-2.93,0H13.56C8.11.02,4.83.24,2.87,1.53c-.28.19-.53.4-.76.63C.21,4.09,0,7.72.02,14.48.01,31.38.02,52.69.02,70.43c.06,7.55-.18,14.5.2,21.7.21,7.22,4.26,7.68,10.52,7.82,2.9.06,5.8.07,8.75.07h.3c2.34,0,4.71-.01,7.12-.01.72,0,1.45,0,2.18.01h9.12c6.93,0,14.19,0,21.3-.01h8.82c4.01,0,7.9,0,11.59.01.48-.01,1.01-.02,1.58-.02,1.31,0,2.81.02,4.35.02,1.93,0,3.94-.03,5.75-.17.43-.03.84-.06,1.24-.11.17-.02.33-.04.49-.06.37-.04.73-.1,1.07-.16.05-.01.09-.02.13-.02.36-.07.7-.15,1.01-.23,1.12-.3,1.97-.71,2.4-1.28l.05-.05c2.6-2,1.92-12.65,2.03-18.02ZM94.02,23.03c-.01,2-.01,4.03,0,6.07v27.12c-.01,8.22-.01,16.34,0,23.64-.02,1.08-.02,2.31-.01,3.6.02,2.65.05,7.84-.43,10.12-1.04.22-3.21.44-7.73.44-.79,0-1.57,0-2.31-.01-.71,0-1.4-.01-2.04-.01-.59,0-1.13.01-1.64.02-3.67-.01-7.54-.01-11.53-.01h-8.93c-.13-6.99-.26-14-.39-21-.43-.99-1-1.89-1.69-2.68l5.21-1.2c.06-.02.11-.03.17-.05.26-.08.53-.16.79-.25.31-.1.61-.21.92-.31.66-.24,1.32-.49,1.98-.78.63-.26,1.27-.56,1.89-.87.38-.19.75-.39,1.12-.6.18-.11.37-.21.55-.32.55-.33,1.08-.68,1.61-1.05.17-.13.35-.25.52-.38.34-.26.67-.52,1-.8.16-.14.33-.29.49-.43.32-.29.64-.59.94-.9,1.51-1.57,2.8-3.41,3.73-5.58.51-1.2,2.69-6.67.77-12.8-1.3-4.14-4.09-7.37-7.6-9.8.16-1.23.23-2.49.2-3.75-.05-1.87-.31-3.72-.77-5.48l-.47-1.78-1.82.23c-1.79.23-3.5,1.19-4.82,2.7-.99,1.13-1.65,2.42-2.07,3.59-4.04-1.18-8.16-1.71-11.65-1.71s-7.53.52-11.54,1.66c-.46-1.25-1.19-2.65-2.33-3.87-1.4-1.5-3.2-2.45-5.07-2.67l-1.84-.22-.5,1.78c-.51,1.78-.78,3.65-.83,5.53-.04,1.45.05,2.88.28,4.28-3.32,2.4-5.94,5.53-7.17,9.51-1.9,6.1.23,11.53.76,12.77,3.84,9.08,13.93,12.37,20.97,13.56-.06.05-.11.1-.15.16-.32.37-.61.76-.87,1.18-.27.42-.5.87-.71,1.33-.06,3.26-.12,6.52-.18,9.78-.75-.08-1.53-.08-2.27-.08-1.94-.01-3.95-.01-5.2-1.16-.47-.44-.59-.78-.81-1.46-.34-.98-.79-2.33-2.48-3.8-1.27-1.11-2.34-1.49-3.11-1.77-.67-.24-1-.36-1.51-.89-.74-.77-.99-1.56-1.26-2.41-.35-1.13-.84-2.67-2.61-3.35-2.11-.8-4.89.21-5.96,2.17-1.66,3.05,1.19,6.99,3.51,8.9,1.63,1.33,3.05,1.75,4.2,2.1,1.1.33,1.57.49,2.1,1.18.34.46.44.79.58,1.29.21.75.49,1.77,1.56,2.88,1.27,1.32,2.65,1.75,5.97,2.56,3.31.81,5.56,1.26,7.15,1.41-.02,1.22-.05,2.44-.07,3.66h-11.51c-.74-.01-1.47-.01-2.2-.01-1.27,0-2.53.01-3.77.01h-3.65c-2.54,0-5.55-.01-8.62-.06-.99-.03-3.48-.08-4.46-.39-.07-.25-.17-.75-.19-1.61v-.07s-.01-.07-.01-.07c-.25-4.62-.22-9.14-.2-13.94.01-2.41.03-4.91.01-7.48v-16.15c-.01-13.57-.01-27.77,0-39.79,0-1.99-.02-6.45.43-8.01,1.5-.43,5.67-.43,7.11-.43h56.84c1,0,1.98,0,2.96,0,1.51,0,3,0,4.48-.02,1.43,0,2.85-.01,4.26-.01,2.83,0,6.2.02,9.71.21h.14c.86.03,1.37.13,1.63.2.3,1,.36,3.56.37,4.44.08,4,.07,7.97.07,12.18Z"/>
      <path class="cls-2" d="M79.92,100.02c-9.4-.01-20.16,0-30.75,0,3.45,0,6.91-.01,10.34-.01h8.82c4.01,0,7.9,0,11.59.01Z"/>
      <path class="cls-2" d="M38.21,100.02c3.59,0,7.27,0,10.96,0-3.7,0-7.38,0-10.96,0Z"/>
      <path class="cls-2" d="M94.02,23.03c-.01,2-.01,4.03,0,6.07v27.12c-.01,8.22-.01,16.34,0,23.64-.02,1.08-.02,2.31-.01,3.6.02,2.65.05,7.84-.43,10.12-1.04.22-3.21.44-7.73.44-.79,0-1.57,0-2.31-.01-.71,0-1.4-.01-2.04-.01-.59,0-1.13.01-1.64.02-3.67-.01-7.54-.01-11.53-.01h-8.93c-.13-6.99-.26-14-.39-21-.43-.99-1-1.89-1.69-2.68l5.21-1.2c.06-.02.11-.03.17-.05.26-.08.53-.16.79-.25.31-.1.61-.21.92-.31.66-.24,1.32-.49,1.98-.78.63-.26,1.27-.56,1.89-.87.38-.19.75-.39,1.12-.6.18-.11.37-.21.55-.32.55-.33,1.08-.68,1.61-1.05.17-.13.35-.25.52-.38.34-.26.67-.52,1-.8.16-.14.33-.29.49-.43.32-.29.64-.59.94-.9,1.51-1.57,2.8-3.41,3.73-5.58.51-1.2,2.69-6.67.77-12.8-1.3-4.14-4.09-7.37-7.6-9.8.16-1.23.23-2.49.2-3.75-.05-1.87-.31-3.72-.77-5.48l-.47-1.78-1.82.23c-1.79.23-3.5,1.19-4.82,2.7-.99,1.13-1.65,2.42-2.07,3.59-4.04-1.18-8.16-1.71-11.65-1.71s-7.53.52-11.54,1.66c-.46-1.25-1.19-2.65-2.33-3.87-1.4-1.5-3.2-2.45-5.07-2.67l-1.84-.22-.5,1.78c-.51,1.78-.78,3.65-.83,5.53-.04,1.45.05,2.88.28,4.28-3.32,2.4-5.94,5.53-7.17,9.51-1.9,6.1.23,11.53.76,12.77,3.84,9.08,13.93,12.37,20.97,13.56-.06.05-.11.1-.15.16-.32.37-.61.76-.87,1.18-.27.42-.5.87-.71,1.33-.06,3.26-.12,6.52-.18,9.78-.75-.08-1.53-.08-2.27-.08-1.94-.01-3.95-.01-5.2-1.16-.47-.44-.59-.78-.81-1.46-.34-.98-.79-2.33-2.48-3.8-1.27-1.11-2.34-1.49-3.11-1.77-.67-.24-1-.36-1.51-.89-.74-.77-.99-1.56-1.26-2.41-.35-1.13-.84-2.67-2.61-3.35-2.11-.8-4.89.21-5.96,2.17-1.66,3.05,1.19,6.99,3.51,8.9,1.63,1.33,3.05,1.75,4.2,2.1,1.1.33,1.57.49,2.1,1.18.34.46.44.79.58,1.29.21.75.49,1.77,1.56,2.88,1.27,1.32,2.65,1.75,5.97,2.56,3.31.81,5.56,1.26,7.15,1.41-.02,1.22-.05,2.44-.07,3.66h-11.51c-.74-.01-1.47-.01-2.2-.01-1.27,0-2.53.01-3.77.01h-3.65c-2.54,0-5.55-.01-8.62-.06-.99-.03-3.48-.08-4.46-.39-.07-.25-.17-.75-.19-1.61v-.07s-.01-.07-.01-.07c-.25-4.62-.22-9.14-.2-13.94.01-2.41.03-4.91.01-7.48v-16.15c-.01-13.57-.01-27.77,0-39.79,0-1.99-.02-6.45.43-8.01,1.5-.43,5.67-.43,7.11-.43h56.84c1,0,1.98,0,2.96,0,1.51,0,3,0,4.48-.02,1.43,0,2.85-.01,4.26-.01,2.83,0,6.2.02,9.71.21h.14c.86.03,1.37.13,1.63.2.3,1,.36,3.56.37,4.44.08,4,.07,7.97.07,12.18Z"/>
    </g>
  </g>
</svg>