<?xml version="1.0" encoding="UTF-8"?>
<svg id="Layer_2" xmlns="http://www.w3.org/2000/svg" viewBox="0 0 100.02 100.02">
  <defs>
    <style>
      .cls-1 {
        fill: #2cb67d;
      }

      .cls-2 {
        fill: #16161a;
      }
    </style>
  </defs>
  <g id="Layer_1-2" data-name="Layer_1">
    <g>
      <path class="cls-2" d="M68.33,100.01c-9.79,0-20.28.01-30.12.01,13.87,0,29.03-.01,41.71,0-3.69-.01-7.58-.01-11.59-.01ZM19.79,100.02c3.05,0,6.14-.01,9.3,0-.73-.01-1.46-.01-2.18-.01-2.41,0-4.78.01-7.12.01Z"/>
      <path class="cls-1" d="M100.02,79.92c-.01-15.53,0-34.79,0-50.82-.02-6.33.05-12.36-.07-18.36-.13-6.3-.62-10.3-7.82-10.52-3.37-.18-6.68-.22-10.03-.22-2.87,0-5.77.03-8.74.03-.97,0-1.94,0-2.93,0H13.56C8.11.02,4.83.24,2.87,1.53c-.28.19-.53.4-.76.63C.21,4.09,0,7.72.02,14.48.01,31.38.02,52.69.02,70.43c.06,7.55-.18,14.5.2,21.7.21,7.22,4.26,7.68,10.52,7.82,2.9.06,5.8.07,8.75.07h.3c2.34,0,4.71-.01,7.12-.01.72,0,1.45,0,2.18.01h9.12c9.84,0,20.33-.01,30.12-.01,4.01,0,7.9,0,11.59.01.48-.01,1.01-.02,1.58-.02,1.31,0,2.81.02,4.35.02,1.93,0,3.94-.03,5.75-.17.43-.03.84-.06,1.24-.11.17-.02.33-.04.49-.06.37-.04.73-.1,1.07-.16.05-.01.09-.02.13-.02.36-.07.7-.15,1.01-.23,1.12-.3,1.97-.71,2.4-1.28l.05-.05c2.6-2,1.92-12.65,2.03-18.02ZM94.02,23.03c-.01,2-.01,4.03,0,6.07v27.12c-.01,8.22-.01,16.34,0,23.64-.02,1.08-.02,2.31-.01,3.6.02,2.65.05,7.84-.43,10.12-1.04.22-3.21.44-7.73.44-.79,0-1.57,0-2.31-.01-.71,0-1.4-.01-2.04-.01-.59,0-1.13.01-1.64.02-3.67-.01-7.54-.01-11.53-.01h-15.02s-24.2.01-24.2.01c-.74-.01-1.47-.01-2.2-.01-1.27,0-2.53.01-3.77.01h-3.65c-2.54,0-5.55-.01-8.62-.06-.99-.03-3.48-.08-4.46-.39-.07-.25-.17-.75-.19-1.61v-.07s-.01-.07-.01-.07c-.25-4.62-.22-9.14-.2-13.94.01-2.41.03-4.91.01-7.48v-16.15c-.01-13.57-.01-27.77,0-39.79,0-1.99-.02-6.45.43-8.01,1.5-.43,5.67-.43,7.11-.43h56.84c1,0,1.98,0,2.96,0,1.51,0,3,0,4.48-.02,1.43,0,2.85-.01,4.26-.01,2.83,0,6.2.02,9.71.21h.14c.86.03,1.37.13,1.63.2.3,1,.36,3.56.37,4.44.08,4,.07,7.97.07,12.18Z"/>
      <path class="cls-2" d="M93.95,10.85c-.01-.88-.07-3.44-.37-4.44-.26-.07-.77-.17-1.63-.19h-.07s-.07,0-.07,0c-3.51-.19-6.88-.21-9.71-.21-1.41,0-2.83.01-4.26.01-1.48.01-2.97.02-4.48.02-.98,0-1.96,0-2.96,0H13.56c-1.44,0-5.61,0-7.11.43-.45,1.56-.43,6.02-.43,8.01-.01,12.02-.01,26.22-.01,39.79v16.15c.03,2.57.01,5.07,0,7.48-.02,4.8-.05,9.32.2,13.94v.14c.03.86.13,1.36.2,1.61.98.31,3.47.36,4.46.39,3.07.05,6.08.06,8.62.06h3.65c1.24,0,2.5-.01,3.77-.01.73,0,1.46,0,2.2.01h39.22c3.99-.01,7.86-.01,11.53,0,.51-.01,1.05-.02,1.64-.02.64,0,1.33.01,2.04.01.74.01,1.52.01,2.31.01,4.52,0,6.69-.22,7.73-.44.48-2.28.45-7.47.43-10.12-.01-1.29-.01-2.52.01-3.6-.01-7.3-.01-15.42,0-23.64v-27.12c-.01-2.04-.01-4.07,0-6.07,0-4.21.01-8.18-.07-12.18ZM29.06,84.75h-14.5v-48.95h14.5v48.95ZM21.83,28.64c-4.87,0-8.4-3.17-8.4-7.58s3.53-7.58,8.4-7.58,8.39,3.13,8.39,7.58-3.53,7.58-8.39,7.58ZM85.94,84.75h-14.51v-28.53c0-7.04-1.89-9.25-6.08-9.25-3.64,0-5.87,1.69-9.06,4.76v33.02h-14.5v-48.95h11.83l1.05,6.2h.36c4.12-3.96,9.05-7.38,15.72-7.38,10.65,0,15.19,7.51,15.19,19.74v30.39Z"/>
      <path class="cls-1" d="M21.83,13.48c-4.87,0-8.4,3.13-8.4,7.58s3.53,7.58,8.4,7.58,8.39-3.17,8.39-7.58-3.53-7.58-8.39-7.58ZM14.56,35.8v48.95h14.5v-48.95h-14.5Z"/>
      <path class="cls-1" d="M70.75,34.62c-6.67,0-11.6,3.42-15.72,7.38h-.36l-1.05-6.2h-11.83v48.95h14.5v-33.02c3.19-3.07,5.42-4.76,9.06-4.76,4.19,0,6.08,2.21,6.08,9.25v28.53h14.51v-30.39c0-12.23-4.54-19.74-15.19-19.74Z"/>
    </g>
  </g>
</svg>